<svg width="500" height="500" viewBox="0 0 500 500" fill="none" xmlns="http://www.w3.org/2000/svg">
<mask id="mask0_21_64" style="mask-type:alpha" maskUnits="userSpaceOnUse" x="0" y="0" width="500" height="500">
<circle cx="250" cy="250" r="250" transform="rotate(-180 250 250)" fill="#D9D9D9"/>
</mask>
<g mask="url(#mask0_21_64)">
<path fill-rule="evenodd" clip-rule="evenodd" d="M500 500L0 500L3.72421e-05 74C2.51715e-05 212.071 111.929 324 250 324C388.071 324 500 212.071 500 74L500 500ZM499.717 62C499.905 65.9764 500 69.9771 500 74L500 62L499.717 62ZM0.282997 62C0.0950697 65.9763 3.75938e-05 69.9771 3.72421e-05 74L3.82912e-05 62L0.282997 62Z" fill="#737373"/>
</g>
<circle cx="250" cy="250" r="227" transform="rotate(-180 250 250)" stroke="#737373" stroke-width="46"/>
</svg>
