<svg width="161" height="253" viewBox="0 0 161 253" fill="none" xmlns="http://www.w3.org/2000/svg">
<path d="M71.0035 246.462C74.6491 253.974 85.3509 253.974 88.9965 246.462L148.372 124.116C151.595 117.475 146.758 109.75 139.376 109.75H20.6243C13.242 109.75 8.40463 117.475 11.6278 124.116L71.0035 246.462Z" fill="#ffffff"/>
<path fill-rule="evenodd" clip-rule="evenodd" d="M80.5 105C94.031 105 105 94.031 105 80.5C105 66.969 94.031 56 80.5 56C66.969 56 56 66.969 56 80.5C56 94.031 66.969 105 80.5 105ZM80.5 161C124.959 161 161 124.959 161 80.5C161 36.0411 124.959 0 80.5 0C36.0411 0 0 36.0411 0 80.5C0 124.959 36.0411 161 80.5 161Z" fill="#ffffff"/>
</svg>
