<?xml version="1.0" standalone="no"?>
<!DOCTYPE svg PUBLIC "-//W3C//DTD SVG 20010904//EN"
 "http://www.w3.org/TR/2001/REC-SVG-20010904/DTD/svg10.dtd">
<svg version="1.0" xmlns="http://www.w3.org/2000/svg"
 width="330.000000pt" height="330.000000pt" viewBox="0 0 330.000000 330.000000"
 preserveAspectRatio="xMidYMid meet">
<metadata>
Created by potrace 1.14, written by Peter Selinger 2001-2017
</metadata>
<g transform="translate(0.000000,330.000000) scale(0.100000,-0.100000)"
fill="#000000" stroke="none">
<path d="M432 3285 c-158 -38 -300 -152 -376 -302 -57 -114 -56 -76 -55 -1338
0 -1082 1 -1164 18 -1226 51 -189 208 -348 396 -400 74 -21 2396 -21 2470 0
196 54 362 230 404 426 7 34 10 427 8 1230 -2 1079 -4 1184 -19 1228 -69 195
-222 338 -410 382 -54 12 -234 15 -1223 14 -910 -1 -1172 -4 -1213 -14z"/>
</g>
</svg>
